<?xml version="1.0" encoding="UTF-8" standalone="no"?>
<svg
   xmlns:dc="http://purl.org/dc/elements/1.1/"
   xmlns:cc="http://creativecommons.org/ns#"
   xmlns:rdf="http://www.w3.org/1999/02/22-rdf-syntax-ns#"
   xmlns:svg="http://www.w3.org/2000/svg"
   xmlns="http://www.w3.org/2000/svg"
   xmlns:sodipodi="http://sodipodi.sourceforge.net/DTD/sodipodi-0.dtd"
   xmlns:inkscape="http://www.inkscape.org/namespaces/inkscape"
   width="80"
   height="80"
   viewBox="0 0 21.166666 21.166666"
   version="1.1"
   id="svg1934"
   inkscape:version="1.0.1 (3bc2e813f5, 2020-09-07)"
   sodipodi:docname="logo.svg">
  <defs
     id="defs1928">
    <inkscape:perspective
       sodipodi:type="inkscape:persp3d"
       inkscape:vp_x="0 : 10.583333 : 1"
       inkscape:vp_y="0 : 1000 : 0"
       inkscape:vp_z="21.166666 : 10.583333 : 1"
       inkscape:persp3d-origin="10.583333 : 7.0555553 : 1"
       id="perspective2020" />
  </defs>
  <sodipodi:namedview
     id="base"
     pagecolor="#ffffff"
     bordercolor="#666666"
     borderopacity="1.0"
     inkscape:pageopacity="0.0"
     inkscape:pageshadow="2"
     inkscape:zoom="2.5384651"
     inkscape:cx="71.06713"
     inkscape:cy="90.138203"
     inkscape:document-units="mm"
     inkscape:current-layer="layer1"
     inkscape:document-rotation="0"
     showgrid="false"
     units="px"
     inkscape:window-width="1356"
     inkscape:window-height="717"
     inkscape:window-x="0"
     inkscape:window-y="20"
     inkscape:window-maximized="1" />
  <metadata
     id="metadata1931">
    <rdf:RDF>
      <cc:Work
         rdf:about="">
        <dc:format>image/svg+xml</dc:format>
        <dc:type
           rdf:resource="http://purl.org/dc/dcmitype/StillImage" />
        <dc:title />
      </cc:Work>
    </rdf:RDF>
  </metadata>
  <g
     inkscape:label="Layer 1"
     inkscape:groupmode="layer"
     id="layer1">
    <path
       id="path1716"
       style="fill:#f2b6bc;fill-opacity:1;fill-rule:evenodd;stroke:#083a42;stroke-width:0;stroke-linecap:round;stroke-linejoin:round;stroke-miterlimit:4;stroke-dasharray:none;stroke-opacity:1;paint-order:markers stroke fill"
       d="m 4.166667e-8,1.0155556e-6 c 1.17592585833333,0 2.35185165833333,0 3.52777755833333,0 0,1.1759260844444 0,2.3518521844444 0,3.5277782844444 -1.1759259,0 -2.3518517,0 -3.52777755833333,0 0,-1.1759261 0,-2.3518522 0,-3.5277782844444 z" />
    <path
       id="path1718"
       style="fill:#f0b6d3;fill-opacity:1;fill-rule:evenodd;stroke:#083a42;stroke-width:0;stroke-linecap:round;stroke-linejoin:round;stroke-miterlimit:4;stroke-dasharray:none;stroke-opacity:1;paint-order:markers stroke fill"
       d="m 3.5277779,3.5277776 c 1.1759259,0 2.3518517,0 3.5277776,0 0,1.175926 0,2.3518522 0,3.5277781 -1.1759259,0 -2.3518517,0 -3.5277776,0 0,-1.1759259 0,-2.3518521 0,-3.5277781 z" />
    <path
       id="path1720"
       style="fill:#cbbbe9;fill-opacity:1;fill-rule:evenodd;stroke:#083a42;stroke-width:0;stroke-linecap:round;stroke-linejoin:round;stroke-miterlimit:4;stroke-dasharray:none;stroke-opacity:1;paint-order:markers stroke fill"
       d="m 7.0555555,7.0555557 c 1.1759259,0 2.351852,0 3.5277775,0 0,1.175926 0,2.3518527 0,3.5277783 -1.1759255,0 -2.3518516,0 -3.5277775,0 0,-1.1759256 0,-2.3518523 0,-3.5277783 z" />
    <path
       id="path1722"
       style="fill:#c8a9fa;fill-opacity:1;fill-rule:evenodd;stroke:#083a42;stroke-width:0;stroke-linecap:round;stroke-linejoin:round;stroke-miterlimit:4;stroke-dasharray:none;stroke-opacity:1;paint-order:markers stroke fill"
       d="m 10.583332,10.583334 c 1.175926,0 2.351852,0 3.527778,0 0,1.175926 0,2.351852 0,3.527778 -1.175926,0 -2.351852,0 -3.527778,0 0,-1.175926 0,-2.351852 0,-3.527778 z" />
    <path
       id="path1724"
       style="fill:#abdee5;fill-opacity:1;fill-rule:evenodd;stroke:#083a42;stroke-width:0;stroke-linecap:round;stroke-linejoin:round;stroke-miterlimit:4;stroke-dasharray:none;stroke-opacity:1;paint-order:markers stroke fill"
       d="m 17.638889,17.638889 c 1.175926,0 2.351851,0 3.527777,0 0,1.175926 0,2.351853 0,3.527779 -1.175926,0 -2.351851,0 -3.527777,0 0,-1.175926 0,-2.351853 0,-3.527779 z" />
    <path
       id="path1726"
       style="fill:#a8cbfe;fill-opacity:1;fill-rule:evenodd;stroke:#083a42;stroke-width:0;stroke-linecap:round;stroke-linejoin:round;stroke-miterlimit:4;stroke-dasharray:none;stroke-opacity:1;paint-order:markers stroke fill"
       d="m 14.111111,14.111113 c 1.175925,0 2.351851,0 3.527777,0 0,1.175926 0,2.351853 0,3.527779 -1.175926,0 -2.351852,0 -3.527777,0 0,-1.175926 0,-2.351853 0,-3.527779 z" />
    <path
       id="path1728"
       style="fill:#ed969e;fill-opacity:1;fill-rule:evenodd;stroke:#083a42;stroke-width:0;stroke-linecap:round;stroke-linejoin:round;stroke-miterlimit:4;stroke-dasharray:none;stroke-opacity:1;paint-order:markers stroke fill"
       d="m 3.5277776,1.598889e-6 c 1.1759259,0 2.3518517,0 3.5277775,0 0,1.175926101111 0,2.351852201111 0,3.527778301111 -1.1759258,0 -2.3518516,0 -3.5277775,0 0,-1.1759261 0,-2.3518522 0,-3.527778301111 z" />
    <path
       id="path1730"
       style="fill:#ea95bf;fill-opacity:1;fill-rule:evenodd;stroke:#083a42;stroke-width:0;stroke-linecap:round;stroke-linejoin:round;stroke-miterlimit:4;stroke-dasharray:none;stroke-opacity:1;paint-order:markers stroke fill"
       d="m 7.0555555,3.5277783 c 1.1759259,0 2.351852,0 3.5277775,0 0,1.1759261 0,2.3518524 0,3.5277783 -1.1759255,0 -2.3518516,0 -3.5277775,0 0,-1.1759259 0,-2.3518522 0,-3.5277783 z" />
    <path
       id="path1732"
       style="fill:#b49ddf;fill-opacity:1;fill-rule:evenodd;stroke:#083a42;stroke-width:0;stroke-linecap:round;stroke-linejoin:round;stroke-miterlimit:4;stroke-dasharray:none;stroke-opacity:1;paint-order:markers stroke fill"
       d="m 10.583332,7.0555566 c 1.175926,0 2.351852,0 3.527778,0 0,1.1759259 0,2.3518527 0,3.5277784 -1.175926,0 -2.351852,0 -3.527778,0 0,-1.1759257 0,-2.3518525 0,-3.5277784 z" />
    <path
       id="path1734"
       style="fill:#af83f8;fill-opacity:1;fill-rule:evenodd;stroke:#083a42;stroke-width:0;stroke-linecap:round;stroke-linejoin:round;stroke-miterlimit:4;stroke-dasharray:none;stroke-opacity:1;paint-order:markers stroke fill"
       d="m 14.111111,10.583334 c 1.175925,0 2.351851,0 3.527777,0 0,1.175926 0,2.351852 0,3.527778 -1.175926,0 -2.351852,0 -3.527777,0 0,-1.175926 0,-2.351852 0,-3.527778 z" />
    <path
       id="path1736"
       style="fill:#86cfda;fill-opacity:1;fill-rule:evenodd;stroke:#083a42;stroke-width:0;stroke-linecap:round;stroke-linejoin:round;stroke-miterlimit:4;stroke-dasharray:none;stroke-opacity:1;paint-order:markers stroke fill"
       d="m 1.6783755e-6,17.638888 c 1.1759258216245,0 2.3518516216245,0 3.5277775216245,0 0,1.175926 0,2.351853 0,3.527779 -1.1759259,0 -2.3518517,0 -3.5277775216245,0 0,-1.175926 0,-2.351853 0,-3.527779 z" />
    <path
       id="path1738"
       style="fill:#81b4fe;fill-opacity:1;fill-rule:evenodd;stroke:#083a42;stroke-width:0;stroke-linecap:round;stroke-linejoin:round;stroke-miterlimit:4;stroke-dasharray:none;stroke-opacity:1;paint-order:markers stroke fill"
       d="m 17.638888,14.111113 c 1.175926,0 2.351852,0 3.527777,0 0,1.175926 0,2.351853 0,3.527779 -1.175925,0 -2.351851,0 -3.527777,0 0,-1.175926 0,-2.351853 0,-3.527779 z" />
    <path
       id="path1740"
       style="fill:#e77681;fill-opacity:1;fill-rule:evenodd;stroke:#083a42;stroke-width:0;stroke-linecap:round;stroke-linejoin:round;stroke-miterlimit:4;stroke-dasharray:none;stroke-opacity:1;paint-order:markers stroke fill"
       d="m 7.0555555,1.598889e-6 c 1.1759259,0 2.351852,0 3.5277775,0 0,1.175926101111 0,2.351852201111 0,3.527778301111 -1.1759255,0 -2.3518516,0 -3.5277775,0 0,-1.1759261 0,-2.3518522 0,-3.527778301111 z" />
    <path
       id="path1742"
       style="fill:#e374ab;fill-opacity:1;fill-rule:evenodd;stroke:#083a42;stroke-width:0;stroke-linecap:round;stroke-linejoin:round;stroke-miterlimit:4;stroke-dasharray:none;stroke-opacity:1;paint-order:markers stroke fill"
       d="m 10.583333,3.5277783 c 1.175926,0 2.351852,0 3.527778,0 0,1.1759261 0,2.3518524 0,3.5277783 -1.175926,0 -2.351852,0 -3.527778,0 0,-1.1759259 0,-2.3518522 0,-3.5277783 z" />
    <path
       id="path1744"
       style="fill:#9d7ed5;fill-opacity:1;fill-rule:evenodd;stroke:#083a42;stroke-width:0;stroke-linecap:round;stroke-linejoin:round;stroke-miterlimit:4;stroke-dasharray:none;stroke-opacity:1;paint-order:markers stroke fill"
       d="m 14.111111,7.0555566 c 1.175925,0 2.351851,0 3.527777,0 0,1.1759259 0,2.3518527 0,3.5277784 -1.175926,0 -2.351852,0 -3.527777,0 0,-1.1759257 0,-2.3518525 0,-3.5277784 z" />
    <path
       id="path1746"
       style="fill:#975cf6;fill-opacity:1;fill-rule:evenodd;stroke:#083a42;stroke-width:0;stroke-linecap:round;stroke-linejoin:round;stroke-miterlimit:4;stroke-dasharray:none;stroke-opacity:1;paint-order:markers stroke fill"
       d="m 17.638888,10.583334 c 1.175926,0 2.351852,0 3.527777,0 0,1.175926 0,2.351852 0,3.527778 -1.175925,0 -2.351851,0 -3.527777,0 0,-1.175926 0,-2.351852 0,-3.527778 z" />
    <path
       id="path1748"
       style="fill:#5a9cfe;fill-opacity:1;fill-rule:evenodd;stroke:#083a42;stroke-width:0;stroke-linecap:round;stroke-linejoin:round;stroke-miterlimit:4;stroke-dasharray:none;stroke-opacity:1;paint-order:markers stroke fill"
       d="m 4.0680983e-7,14.111112 c 1.17592589319017,0 2.35185169319017,0 3.52777749319017,0 0,1.175926 0,2.351853 0,3.527779 -1.1759258,0 -2.3518516,0 -3.52777749319017,0 0,-1.175926 0,-2.351853 0,-3.527779 z" />
    <path
       id="path1750"
       style="fill:#ed969e;fill-opacity:1;fill-rule:evenodd;stroke:#083a42;stroke-width:0;stroke-linecap:round;stroke-linejoin:round;stroke-miterlimit:4;stroke-dasharray:none;stroke-opacity:1;paint-order:markers stroke fill"
       d="m 1.6787603e-7,3.5277795 c 1.17592583212397,0 2.35185163212397,0 3.52777753212397,0 0,1.1759263 0,2.3518528 0,3.5277787 -1.1759259,0 -2.3518517,0 -3.52777753212397,0 0,-1.1759259 0,-2.3518524 0,-3.5277787 z" />
    <path
       id="path1752"
       style="fill:#ea95bf;fill-opacity:1;fill-rule:evenodd;stroke:#083a42;stroke-width:0;stroke-linecap:round;stroke-linejoin:round;stroke-miterlimit:4;stroke-dasharray:none;stroke-opacity:1;paint-order:markers stroke fill"
       d="m 3.5277779,7.0555566 c 1.1759259,0 2.3518517,0 3.5277776,0 0,1.1759259 0,2.3518527 0,3.5277784 -1.1759259,0 -2.3518517,0 -3.5277776,0 0,-1.1759257 0,-2.3518525 0,-3.5277784 z" />
    <path
       id="path1754"
       style="fill:#b49ddf;fill-opacity:1;fill-rule:evenodd;stroke:#083a42;stroke-width:0;stroke-linecap:round;stroke-linejoin:round;stroke-miterlimit:4;stroke-dasharray:none;stroke-opacity:1;paint-order:markers stroke fill"
       d="m 7.0555555,10.583334 c 1.1759259,0 2.351852,0 3.5277775,0 0,1.175926 0,2.351852 0,3.527778 -1.1759255,0 -2.3518516,0 -3.5277775,0 0,-1.175926 0,-2.351852 0,-3.527778 z" />
    <path
       id="path1756"
       style="fill:#af83f8;fill-opacity:1;fill-rule:evenodd;stroke:#083a42;stroke-width:0;stroke-linecap:round;stroke-linejoin:round;stroke-miterlimit:4;stroke-dasharray:none;stroke-opacity:1;paint-order:markers stroke fill"
       d="m 10.583333,14.111112 c 1.175926,0 2.351852,0 3.527778,0 0,1.175926 0,2.351852 0,3.527778 -1.175926,0 -2.351852,0 -3.527778,0 0,-1.175926 0,-2.351852 0,-3.527778 z" />
    <path
       id="path1758"
       style="fill:#81b4fe;fill-opacity:1;fill-rule:evenodd;stroke:#083a42;stroke-width:0;stroke-linecap:round;stroke-linejoin:round;stroke-miterlimit:4;stroke-dasharray:none;stroke-opacity:1;paint-order:markers stroke fill"
       d="m 14.111111,17.638891 c 1.175925,0 2.351851,0 3.527777,0 0,1.175926 0,2.351852 0,3.527778 -1.175926,0 -2.351852,0 -3.527777,0 0,-1.175926 0,-2.351852 0,-3.527778 z" />
    <path
       id="path1760"
       style="fill:#e77681;fill-opacity:1;fill-rule:evenodd;stroke:#083a42;stroke-width:0;stroke-linecap:round;stroke-linejoin:round;stroke-miterlimit:4;stroke-dasharray:none;stroke-opacity:1;paint-order:markers stroke fill"
       d="m 5.647251e-7,7.0555566 c 1.1759258352749,0 2.3518516352749,0 3.5277775352749,0 0,1.1759259 0,2.3518527 0,3.5277784 -1.1759259,0 -2.3518517,0 -3.5277775352749,0 0,-1.1759257 0,-2.3518525 0,-3.5277784 z" />
    <path
       id="path1762"
       style="fill:#e374ab;fill-opacity:1;fill-rule:evenodd;stroke:#083a42;stroke-width:0;stroke-linecap:round;stroke-linejoin:round;stroke-miterlimit:4;stroke-dasharray:none;stroke-opacity:1;paint-order:markers stroke fill"
       d="m 3.5277783,10.583333 c 1.1759258,0 2.3518516,0 3.5277775,0 0,1.175926 0,2.351852 0,3.527778 -1.1759259,0 -2.3518517,0 -3.5277775,0 0,-1.175926 0,-2.351852 0,-3.527778 z" />
    <path
       id="path1764"
       style="fill:#9d7ed5;fill-opacity:1;fill-rule:evenodd;stroke:#083a42;stroke-width:0;stroke-linecap:round;stroke-linejoin:round;stroke-miterlimit:4;stroke-dasharray:none;stroke-opacity:1;paint-order:markers stroke fill"
       d="m 7.0555555,14.111112 c 1.1759259,0 2.351852,0 3.5277775,0 0,1.175926 0,2.351852 0,3.527778 -1.1759255,0 -2.3518516,0 -3.5277775,0 0,-1.175926 0,-2.351852 0,-3.527778 z" />
    <path
       id="path1766"
       style="fill:#975cf6;fill-opacity:1;fill-rule:evenodd;stroke:#083a42;stroke-width:0;stroke-linecap:round;stroke-linejoin:round;stroke-miterlimit:4;stroke-dasharray:none;stroke-opacity:1;paint-order:markers stroke fill"
       d="m 10.583332,17.638889 c 1.175926,0 2.351852,0 3.527778,0 0,1.175926 0,2.351853 0,3.527779 -1.175926,0 -2.351852,0 -3.527778,0 0,-1.175926 0,-2.351853 0,-3.527779 z" />
    <path
       id="path1768"
       style="fill:#dc3545;fill-opacity:1;fill-rule:evenodd;stroke:#083a42;stroke-width:0;stroke-linecap:round;stroke-linejoin:round;stroke-miterlimit:4;stroke-dasharray:none;stroke-opacity:1;paint-order:markers stroke fill"
       d="m 3.2579131e-7,10.583335 c 1.17592587420869,0 2.35185167420869,0 3.52777747420869,0 0,1.175926 0,2.351853 0,3.527779 -1.1759258,0 -2.3518516,0 -3.52777747420869,0 0,-1.175926 0,-2.351853 0,-3.527779 z" />
    <path
       id="path1770"
       style="fill:#d63384;fill-opacity:1;fill-rule:evenodd;stroke:#083a42;stroke-width:0;stroke-linecap:round;stroke-linejoin:round;stroke-miterlimit:4;stroke-dasharray:none;stroke-opacity:1;paint-order:markers stroke fill"
       d="m 3.5277779,14.111112 c 1.1759259,0 2.3518517,0 3.5277776,0 0,1.175926 0,2.351852 0,3.527778 -1.1759259,0 -2.3518517,0 -3.5277776,0 0,-1.175926 0,-2.351852 0,-3.527778 z" />
    <path
       id="path1772"
       style="fill:#8660cb;fill-opacity:1;fill-rule:evenodd;stroke:#083a42;stroke-width:0;stroke-linecap:round;stroke-linejoin:round;stroke-miterlimit:4;stroke-dasharray:none;stroke-opacity:1;paint-order:markers stroke fill"
       d="m 7.0555555,17.638891 c 1.1759259,0 2.351852,0 3.5277775,0 0,1.175926 0,2.351852 0,3.527778 -1.1759255,0 -2.3518516,0 -3.5277775,0 0,-1.175926 0,-2.351852 0,-3.527778 z" />
    <path
       id="path1774"
       style="fill:#b92d3a;fill-opacity:1;fill-rule:evenodd;stroke:#083a42;stroke-width:0;stroke-linecap:round;stroke-linejoin:round;stroke-miterlimit:4;stroke-dasharray:none;stroke-opacity:1;paint-order:markers stroke fill"
       d="m 4.0474894e-7,14.111112 c 1.17592589525106,0 2.35185169525106,0 3.52777749525106,0 0,1.175926 0,2.351852 0,3.527778 -1.1759258,0 -2.3518516,0 -3.52777749525106,0 0,-1.175926 0,-2.351852 0,-3.527778 z" />
    <path
       id="path1776"
       style="fill:#96242f;fill-opacity:1;fill-rule:evenodd;stroke:#083a42;stroke-width:0;stroke-linecap:round;stroke-linejoin:round;stroke-miterlimit:4;stroke-dasharray:none;stroke-opacity:1;paint-order:markers stroke fill"
       d="m 4.8370658e-7,17.638889 c 1.17592591629342,0 2.35185161629342,0 3.52777751629342,0 0,1.175926 0,2.351853 0,3.527779 -1.1759259,0 -2.3518516,0 -3.52777751629342,0 0,-1.175926 0,-2.351853 0,-3.527779 z" />
    <path
       id="path1778"
       style="fill:#b42b6f;fill-opacity:1;fill-rule:evenodd;stroke:#083a42;stroke-width:0;stroke-linecap:round;stroke-linejoin:round;stroke-miterlimit:4;stroke-dasharray:none;stroke-opacity:1;paint-order:markers stroke fill"
       d="m 3.5277779,17.638889 c 1.1759259,0 2.3518517,0 3.5277776,0 0,1.175926 0,2.351853 0,3.527779 -1.1759259,0 -2.3518517,0 -3.5277776,0 0,-1.175926 0,-2.351853 0,-3.527779 z" />
    <path
       id="path1780"
       style="fill:#dc3545;fill-opacity:1;fill-rule:evenodd;stroke:#083a42;stroke-width:0;stroke-linecap:round;stroke-linejoin:round;stroke-miterlimit:4;stroke-dasharray:none;stroke-opacity:1;paint-order:markers stroke fill"
       d="m 14.111112,3.5277783 c -1.175926,0 -2.351852,0 -3.527778,0 0,-1.1759261 0,-2.3518522 0,-3.52777828444448 1.175926,0 2.351852,0 3.527778,0 0,1.17592608444448 0,2.35185218444448 0,3.52777828444448 z" />
    <path
       id="path1782"
       style="fill:#d63384;fill-opacity:1;fill-rule:evenodd;stroke:#083a42;stroke-width:0;stroke-linecap:round;stroke-linejoin:round;stroke-miterlimit:4;stroke-dasharray:none;stroke-opacity:1;paint-order:markers stroke fill"
       d="m 17.638889,7.0555607 c -1.175926,0 -2.351852,0 -3.527777,0 0,-1.1759259 0,-2.3518519 0,-3.5277779 1.175925,0 2.351851,0 3.527777,0 0,1.175926 0,2.351852 0,3.5277779 z" />
    <path
       id="path1784"
       style="fill:#8660cb;fill-opacity:1;fill-rule:evenodd;stroke:#083a42;stroke-width:0;stroke-linecap:round;stroke-linejoin:round;stroke-miterlimit:4;stroke-dasharray:none;stroke-opacity:1;paint-order:markers stroke fill"
       d="m 21.166666,10.583334 c -1.175926,0 -2.351851,0 -3.527777,0 0,-1.1759256 0,-2.3518523 0,-3.5277783 1.175926,0 2.351851,0 3.527777,0 0,1.175926 0,2.3518527 0,3.5277783 z" />
    <path
       id="path1786"
       style="fill:#b92d3a;fill-opacity:1;fill-rule:evenodd;stroke:#083a42;stroke-width:0;stroke-linecap:round;stroke-linejoin:round;stroke-miterlimit:4;stroke-dasharray:none;stroke-opacity:1;paint-order:markers stroke fill"
       d="m 17.638888,3.5277783 c -1.175926,0 -2.351852,0 -3.527778,0 0,-1.1759261 0,-2.3518522 0,-3.52777828444448 1.175926,0 2.351852,0 3.527778,0 0,1.17592608444448 0,2.35185218444448 0,3.52777828444448 z" />
    <path
       id="path1788"
       style="fill:#96242f;fill-opacity:1;fill-rule:evenodd;stroke:#083a42;stroke-width:0;stroke-linecap:round;stroke-linejoin:round;stroke-miterlimit:4;stroke-dasharray:none;stroke-opacity:1;paint-order:markers stroke fill"
       d="m 21.166666,3.5277834 c -1.175926,0 -2.351851,0 -3.527777,0 0,-1.1759261 0,-2.3518522 0,-3.5277783011107 1.175926,0 2.351851,0 3.527777,0 0,1.1759261011107 0,2.3518522011107 0,3.5277783011107 z" />
    <path
       id="path1790"
       style="fill:#b42b6f;fill-opacity:1;fill-rule:evenodd;stroke:#083a42;stroke-width:0;stroke-linecap:round;stroke-linejoin:round;stroke-miterlimit:4;stroke-dasharray:none;stroke-opacity:1;paint-order:markers stroke fill"
       d="m 21.166666,7.0555566 c -1.175926,0 -2.351851,0 -3.527777,0 0,-1.1759259 0,-2.3518522 0,-3.5277783 1.175926,0 2.351851,0 3.527777,0 0,1.1759261 0,2.3518524 0,3.5277783 z" />
  </g>
</svg>
