<?xml version="1.0" encoding="UTF-8" standalone="no"?>
<svg
   xmlns:dc="http://purl.org/dc/elements/1.1/"
   xmlns:cc="http://creativecommons.org/ns#"
   xmlns:rdf="http://www.w3.org/1999/02/22-rdf-syntax-ns#"
   xmlns:svg="http://www.w3.org/2000/svg"
   xmlns="http://www.w3.org/2000/svg"
   xmlns:xlink="http://www.w3.org/1999/xlink"
   xmlns:sodipodi="http://sodipodi.sourceforge.net/DTD/sodipodi-0.dtd"
   xmlns:inkscape="http://www.inkscape.org/namespaces/inkscape"
   width="762"
   height="208"
   viewBox="0 0 201.6125 55.033335"
   version="1.1"
   id="svg2260"
   inkscape:version="1.0.1 (3bc2e813f5, 2020-09-07)"
   sodipodi:docname="me_at_mksybr.svg">
  <defs
     id="defs2254">
    <linearGradient
       inkscape:collect="always"
       xlink:href="#linearGradient969-6"
       id="linearGradient971"
       x1="55.040104"
       y1="18.260057"
       x2="75.695976"
       y2="18.260057"
       gradientUnits="userSpaceOnUse"
       gradientTransform="matrix(1.8863497,0,0,1.8863497,-57.938945,-16.184798)" />
    <linearGradient
       inkscape:collect="always"
       id="linearGradient969-6">
      <stop
         style="stop-color:#f0b6d3;stop-opacity:1"
         offset="0"
         id="stop965" />
      <stop
         style="stop-color:#c8a9fa;stop-opacity:1"
         offset="1"
         id="stop967" />
    </linearGradient>
  </defs>
  <sodipodi:namedview
     id="base"
     pagecolor="#ffffff"
     bordercolor="#666666"
     borderopacity="1.0"
     inkscape:pageopacity="0.0"
     inkscape:pageshadow="2"
     inkscape:zoom="0.3215311"
     inkscape:cx="400"
     inkscape:cy="560"
     inkscape:document-units="mm"
     inkscape:current-layer="layer1"
     inkscape:document-rotation="0"
     showgrid="false"
     units="px"
     inkscape:window-width="1356"
     inkscape:window-height="717"
     inkscape:window-x="0"
     inkscape:window-y="20"
     inkscape:window-maximized="1" />
  <metadata
     id="metadata2257">
    <rdf:RDF>
      <cc:Work
         rdf:about="">
        <dc:format>image/svg+xml</dc:format>
        <dc:type
           rdf:resource="http://purl.org/dc/dcmitype/StillImage" />
        <dc:title></dc:title>
      </cc:Work>
    </rdf:RDF>
  </metadata>
  <g
     inkscape:label="Layer 1"
     inkscape:groupmode="layer"
     id="layer1">
    <g
       aria-label="me@mksybr"
       id="g2190"
       style="font-size:25.4197px;font-family:Inconsolata;-inkscape-font-specification:Inconsolata;stroke-width:47.662"
       transform="translate(-9.559617,10.127601)">
      <path
         d="M 10.415134,32.384361 V 11.629355 h 2.99744 v 2.043711 q 0.726652,-1.135395 1.862047,-1.816631 1.135394,-0.726652 2.361619,-0.726652 1.362473,0 2.361621,0.862899 1.044563,0.862899 1.317057,2.179958 0.590405,-1.362475 1.862047,-2.179958 1.271641,-0.862899 2.815777,-0.862899 2.134541,0 3.088273,1.544135 0.999146,1.498722 0.908315,3.76951 V 32.384361 H 26.99189 V 17.669652 q 0,-1.907461 -0.272496,-2.77036 -0.227078,-0.862901 -0.681236,-1.089979 -0.454157,-0.272494 -0.999148,-0.272494 -0.862899,0 -1.634967,0.817483 -0.726652,0.772068 -1.226226,1.952877 -0.454158,1.180812 -0.454158,2.361621 V 32.384361 H 18.680803 V 17.942148 q 0,-2.588699 -0.499572,-3.451599 -0.454158,-0.862899 -1.771216,-0.862899 -0.999147,0 -1.998295,1.317056 -0.999146,1.271643 -0.999146,3.587847 v 13.851808 z"
         style="fill:#05285b;stroke:#ffffff;stroke-width:0.945428;stroke-miterlimit:4;stroke-dasharray:none;stroke-opacity:1"
         id="path2172" />
      <path
         d="m 69.39453,45.845805 q -4.19783,0 -8.309991,-1.627729 -4.026493,-1.7134 -7.281952,-5.054531 -3.16979,-3.426803 -5.140201,-8.652673 -1.884743,-5.225872 -1.884743,-12.422155 0,-7.11061 1.799073,-12.2508114 1.799072,-5.22587444 4.797521,-8.5670035 2.998451,-3.3411291 6.596591,-4.9688622 3.683811,-1.6277293 7.36762,-1.6277293 4.283503,0 8.052984,2.1417483 3.769481,2.1417521 6.168243,6.42525433 2.39876,4.28350127 2.39876,10.70875377 V 29.911182 H 78.818233 V 26.65572 q -3.341131,3.94082 -8.309993,3.94082 -4.883192,0 -8.13865,-3.169788 -3.255463,-3.255462 -3.255463,-8.138654 0,-5.825561 4.883192,-9.4237015 4.883192,-3.6838109 14.563903,-2.9984529 0,-4.7975203 -3.08412,-8.1386512 -3.084119,-3.4267996 -8.395663,-3.4267996 -4.026491,0 -7.538959,2.3130911 -3.512472,2.31308924 -5.654224,7.1962819 -2.141748,4.7975212 -2.141748,12.3364802 0,8.224325 2.655771,13.535865 2.655767,5.225873 6.76793,7.795974 4.19783,2.484428 8.73834,2.484428 4.968864,0 9.166694,-2.82711 l 2.313091,4.19783 q -5.56855,3.512472 -11.993804,3.512472 z m 1.884742,-19.961114 q 3.940821,0 5.739893,-3.255462 1.799068,-3.255459 1.799068,-11.479783 -7.024942,-0.685358 -10.708751,1.542061 -3.683811,2.141752 -3.683811,6.253911 0,3.169792 1.7134,5.054535 1.7134,1.884738 5.140201,1.884738 z"
         style="fill:url(#linearGradient971);fill-opacity:1;stroke:#ffffff;stroke-width:0;stroke-miterlimit:4;stroke-dasharray:none;stroke-opacity:1"
         id="path2174" />
      <path
         d="M 78.538527,32.384361 V 11.629355 h 2.997441 v 2.043711 q 0.726652,-1.135395 1.862047,-1.816631 1.135393,-0.726652 2.361619,-0.726652 1.362473,0 2.361621,0.862899 1.044562,0.862899 1.317057,2.179958 0.590404,-1.362475 1.862047,-2.179958 1.27164,-0.862899 2.815776,-0.862899 2.134542,0 3.088273,1.544135 0.999145,1.498722 0.908315,3.76951 v 15.940933 h -2.99744 V 17.669652 q 0,-1.907461 -0.272496,-2.77036 -0.227078,-0.862901 -0.681235,-1.089979 -0.454158,-0.272494 -0.999148,-0.272494 -0.862899,0 -1.634967,0.817483 -0.726652,0.772068 -1.226226,1.952877 -0.454158,1.180812 -0.454158,2.361621 V 32.384361 H 86.804196 V 17.942148 q 0,-2.588699 -0.499572,-3.451599 -0.454157,-0.862899 -1.771216,-0.862899 -0.999146,0 -1.998294,1.317056 -0.999146,1.271643 -0.999146,3.587847 v 13.851808 z"
         style="fill:#4f1319;stroke:#ffffff;stroke-width:0.945428;stroke-miterlimit:4;stroke-dasharray:none;stroke-opacity:1"
         id="path2176" />
      <path
         d="m 108.55826,21.984151 -2.72495,2.543283 v 7.856927 h -3.31535 V 2.1828765 h 3.72409 v 0.317909 q -0.27249,0.272496 -0.36332,0.590406 -0.0454,0.317909 -0.0454,1.089977 V 21.166667 l 10.40021,-9.628142 q 0.49958,0.09083 1.08998,0.181663 0.63582,0.04542 1.31706,0.04542 h 1.18081 l -8.71983,8.220255 10.17313,12.398504 -4.22366,0.181663 z"
         style="fill:#5b2d07;stroke:#ffffff;stroke-width:0.945428;stroke-miterlimit:4;stroke-dasharray:none;stroke-opacity:1"
         id="path2178" />
      <path
         d="m 133.62767,32.838519 q -5.26823,0 -8.81065,-3.269935 l 1.81663,-3.088272 0.27249,-0.408742 0.27249,0.181664 q 0.0908,0.363325 0.18167,0.772068 0.13625,0.363325 0.63582,0.908315 0.95373,0.953732 2.27079,1.589551 1.36247,0.590405 3.4516,0.590405 2.49786,0 3.86033,-0.862899 1.40789,-0.908315 1.40789,-2.452452 0,-1.317057 -1.18081,-2.179956 -1.13539,-0.8629 -4.042,-1.81663 -3.58784,-1.044563 -5.72239,-2.588699 -2.08912,-1.544137 -2.08912,-3.860341 0,-2.36162 1.90746,-3.769509 1.95288,-1.453304 5.72239,-1.453304 2.90661,0 4.81407,0.817483 1.90746,0.817485 3.4516,2.452452 l -1.86205,2.270788 -0.31791,0.363327 -0.22708,-0.22708 q -0.0454,-0.363325 -0.22708,-0.681235 -0.13624,-0.363327 -0.63582,-0.862901 -1.04456,-0.817483 -2.36162,-1.226226 -1.31705,-0.454158 -2.54328,-0.454158 -1.81663,0 -3.13369,0.635821 -1.31705,0.635822 -1.31705,1.952878 0,0.681238 0.45415,1.362473 0.49958,0.635821 1.77122,1.317059 1.27164,0.635819 3.63326,1.317056 3.90575,1.18081 5.49531,2.588699 1.63496,1.362473 1.63496,3.587845 0,1.7258 -0.95373,3.22452 -0.90831,1.498721 -2.81577,2.407036 -1.90747,0.862899 -4.81408,0.862899 z"
         style="fill:#5c4503;stroke:#ffffff;stroke-width:0.945428;stroke-miterlimit:4;stroke-dasharray:none;stroke-opacity:1"
         id="path2180" />
      <path
         d="m 150.70392,40.286705 q -2.90661,0 -4.76865,-1.771214 l 1.40788,-2.225372 0.2725,-0.408743 0.27249,0.181663 q 0.0908,0.363327 0.31791,0.590405 0.22708,0.272496 0.8629,0.681237 0.81749,0.272494 1.81663,0.272494 1.77122,0 2.77037,-1.271642 0.99914,-1.226224 1.86204,-3.814923 l -8.49275,-20.891255 h 3.40619 l 6.44903,16.622173 2.72495,-8.356502 q 0.68124,-2.089125 1.31706,-4.132835 0.63582,-2.043709 0.8629,-4.132836 h 3.26993 q -0.31791,2.089127 -0.99914,4.223667 -0.68124,2.134541 -1.45331,4.269082 l -5.1774,14.623878 q -1.08997,3.042857 -2.81577,4.269083 -1.68039,1.27164 -3.90576,1.27164 z"
         style="fill:#0e3c19;stroke:#ffffff;stroke-width:0.945428;stroke-miterlimit:4;stroke-dasharray:none;stroke-opacity:1"
         id="path2182" />
      <path
         d="m 179.72452,32.883935 q -1.90747,0 -3.49702,-0.862899 -1.58956,-0.862899 -2.63411,-2.361621 l -1.13541,2.724946 h -2.08911 V 2.1828765 h 3.72408 v 0.317909 q -0.2725,0.272496 -0.36333,0.590406 -0.0454,0.317909 -0.0454,1.089977 V 14.808459 q 0.99914,-1.680383 2.67952,-2.67953 1.72581,-0.999146 3.49701,-0.999146 3.76951,0 6.13113,2.67953 2.40704,2.634115 2.40704,7.993175 0,3.724094 -1.27164,6.176545 -1.27165,2.45245 -3.26994,3.678676 -1.95288,1.226226 -4.13283,1.226226 z m -0.40875,-2.906609 q 1.4533,0 2.77036,-0.726652 1.31705,-0.772068 2.13455,-2.543283 0.81747,-1.771214 0.81747,-4.72324 0,-4.132835 -1.58955,-6.085713 -1.54414,-1.952878 -4.042,-1.952878 -2.49788,0 -4.13285,2.270789 -1.58953,2.225372 -1.58953,5.858633 0,3.587847 1.27164,5.767803 1.31705,2.134541 4.35991,2.134541 z"
         style="fill:#083a42;stroke:#ffffff;stroke-width:0.945428;stroke-miterlimit:4;stroke-dasharray:none;stroke-opacity:1"
         id="path2184" />
      <path
         d="m 195.75619,11.629355 h 3.40618 l -0.0908,3.814925 q 0.86289,-2.089125 2.67953,-3.179103 1.81663,-1.135394 3.90575,-1.135394 3.31535,0 5.49532,2.270789 l -1.45331,2.543282 -0.18166,0.408742 -0.31792,-0.181664 q -0.0908,-0.363325 -0.2725,-0.681235 -0.18166,-0.317911 -0.77205,-0.772069 -0.72667,-0.454157 -1.36248,-0.590404 -0.59041,-0.181664 -1.36247,-0.181664 -1.49872,0 -2.99744,0.772068 -1.4533,0.772069 -2.40704,2.407036 -0.95373,1.634967 -0.95373,4.269082 v 11.036032 h -3.31535 z"
         style="fill:#281845;stroke:#ffffff;stroke-width:0.945428;stroke-miterlimit:4;stroke-dasharray:none;stroke-opacity:1"
         id="path2186" />
      <path
         d="m 43.75022,32.838519 q -4.541577,0 -7.357354,-2.770361 -2.770362,-2.770362 -2.770362,-7.993176 0,-3.542429 1.271642,-5.949464 1.317057,-2.452452 3.451598,-3.724094 2.179958,-1.271641 4.814071,-1.271641 2.361621,0 4.269083,1.044563 1.907463,1.044562 3.042856,3.224518 1.135395,2.179958 1.135395,5.586141 0,0.363325 -0.04542,0.772068 0,0.363325 -0.04542,0.726652 H 36.756193 q 0.181662,3.996587 2.225372,5.858634 2.089125,1.862047 4.859488,1.862047 3.269934,0 5.359061,-2.316205 l 1.81663,1.771214 q -2.634115,3.179104 -7.266524,3.179104 z M 36.89244,19.940441 h 11.399358 q 0,-2.906608 -1.498722,-4.586992 -1.453303,-1.725799 -3.860339,-1.725799 -2.134541,0 -3.860341,1.544136 -1.725798,1.49872 -2.179956,4.768655 z"
         style="fill:#05285b;stroke:#ffffff;stroke-width:0.945428;stroke-miterlimit:4;stroke-dasharray:none;stroke-opacity:1"
         id="path2188" />
    </g>
  </g>
</svg>
